<?xml version="1.0" standalone="no"?>
<!DOCTYPE svg PUBLIC "-//W3C//DTD SVG 20010904//EN"
 "http://www.w3.org/TR/2001/REC-SVG-20010904/DTD/svg10.dtd">
<svg version="1.0" xmlns="http://www.w3.org/2000/svg"
 width="1175.000000pt" height="1183.000000pt" viewBox="0 0 1175.000000 1183.000000"
 preserveAspectRatio="xMidYMid meet">
<metadata>
Created by potrace 1.16, written by Peter Selinger 2001-2019
</metadata>
<g transform="translate(0.000000,1183.000000) scale(0.100000,-0.100000)"
fill="#000000" stroke="none">
<path d="M1190 11081 c-113 -4 -206 -8 -208 -9 -34 -23 -110 -109 -130 -147
l-27 -50 -3 -675 c-2 -371 -2 -711 0 -755 l3 -80 843 840 c463 462 842 845
842 852 0 6 -8 14 -17 17 -30 8 -1083 14 -1303 7z"/>
<path d="M5770 11079 c-421 -7 -626 -21 -895 -60 -1401 -202 -2645 -1029
-3364 -2234 -385 -646 -611 -1371 -671 -2150 -27 -353 -36 -2167 -21 -4475 6
-959 7 -1017 25 -1058 20 -46 62 -75 126 -85 19 -3 951 -7 2070 -8 2852 -3
3481 12 4010 97 477 77 869 203 1300 419 1273 637 2217 1887 2499 3310 58 291
72 445 81 880 11 509 12 5013 1 5162 -10 132 -26 168 -86 192 -36 14 -257 16
-2350 17 -1270 0 -2497 -3 -2725 -7z m4164 -1051 c10 -92 27 -2678 21 -3253
-13 -1195 -28 -1434 -115 -1845 -102 -483 -292 -926 -564 -1314 -247 -352
-588 -683 -966 -939 -575 -389 -1064 -575 -1705 -648 -71 -8 -764 -12 -2416
-13 l-2316 -2 -9 1205 c-17 2265 -7 3465 31 3767 90 727 403 1355 954 1918
613 624 1291 995 2061 1125 100 17 160 24 370 44 19 2 1073 5 2341 5 l2306 2
7 -52z"/>
<path d="M9048 9817 c-139 -59 -248 -155 -310 -273 -92 -174 -69 -344 65 -491
105 -115 233 -173 381 -173 191 0 349 88 421 233 96 198 56 437 -99 593 -39
38 -86 73 -130 95 -63 30 -79 34 -170 37 -88 2 -108 0 -158 -21z"/>
<path d="M5675 9540 c-354 -22 -702 -96 -1029 -216 -152 -57 -487 -222 -629
-311 -675 -422 -1199 -1078 -1452 -1815 -130 -379 -187 -718 -188 -1123 0
-248 11 -389 49 -613 229 -1364 1263 -2474 2624 -2817 304 -76 507 -100 855
-99 287 0 390 10 646 60 726 141 1452 549 1945 1092 511 562 806 1231 885
2007 17 167 14 554 -5 728 -76 679 -306 1249 -722 1787 -107 138 -412 447
-544 551 -543 428 -1140 680 -1780 754 -167 19 -483 26 -655 15z m1972 -2455
l246 -156 32 31 c17 16 34 30 39 30 20 0 105 -236 147 -404 47 -195 63 -329
63 -546 -1 -313 -48 -564 -160 -843 -123 -306 -288 -551 -530 -788 -352 -343
-796 -559 -1289 -626 -145 -19 -431 -21 -565 -4 -554 73 -1052 330 -1419 735
-71 79 -201 245 -201 257 0 4 13 9 28 12 16 3 51 25 79 49 46 38 256 263 518
553 307 341 874 943 895 953 4 1 113 -103 242 -231 246 -246 274 -266 341
-253 70 14 115 55 285 259 159 191 405 478 802 935 100 116 180 200 188 197 7
-2 123 -74 259 -160z"/>
<path d="M10045 1895 c-456 -448 -831 -819 -833 -824 -2 -5 12 -19 30 -32 l32
-24 756 0 c858 0 780 -8 843 88 64 98 62 65 62 827 -1 672 -1 696 -20 734 -11
22 -24 41 -30 42 -5 2 -383 -363 -840 -811z"/>
</g>
</svg>
